<?xml version="1.0" encoding="UTF-8" standalone="no"?>
<!-- Created with Inkscape (http://www.inkscape.org/) -->

<svg
   width="180.42645mm"
   height="64.645164mm"
   viewBox="0 0 180.42645 64.645164"
   version="1.1"
   id="svg843"
   inkscape:version="1.2.2 (b0a8486541, 2022-12-01)"
   sodipodi:docname="atom-logo-black-background.svg"
   xmlns:inkscape="http://www.inkscape.org/namespaces/inkscape"
   xmlns:sodipodi="http://sodipodi.sourceforge.net/DTD/sodipodi-0.dtd"
   xmlns="http://www.w3.org/2000/svg"
   xmlns:svg="http://www.w3.org/2000/svg">
  <sodipodi:namedview
     id="namedview845"
     pagecolor="#ffffff"
     bordercolor="#000000"
     borderopacity="0.25"
     inkscape:showpageshadow="2"
     inkscape:pageopacity="0.0"
     inkscape:pagecheckerboard="0"
     inkscape:deskcolor="#d1d1d1"
     inkscape:document-units="mm"
     showgrid="false"
     inkscape:zoom="1.8262486"
     inkscape:cx="348.80246"
     inkscape:cy="330.18506"
     inkscape:window-width="3774"
     inkscape:window-height="2078"
     inkscape:window-x="66"
     inkscape:window-y="45"
     inkscape:window-maximized="1"
     inkscape:current-layer="layer1" />
  <defs
     id="defs840" />
  <g
     inkscape:label="Layer 1"
     inkscape:groupmode="layer"
     id="layer1">
    <rect
       style="fill:#1a1a1a;stroke-width:0.220038;stroke-opacity:0.623529"
       id="rect1193"
       width="180.42645"
       height="64.645164"
       x="3.5527137e-15"
       y="-64.645164"
       transform="scale(1,-1)" />
    <g
       id="g795"
       transform="matrix(1.2256744,0,0,1.2256744,-99.372708,-365.48333)"
       style="fill:#ffffff">
      <path
         d="m 119.22516,313.1859 h -5.856 v 3.552 c -2.208,-2.928 -4.848,-4.17599 -8.688,-4.17599 -7.872002,0 -13.536002,5.90399 -13.536002,14.01599 0,8.016 5.616,13.82401 13.392002,13.82401 3.744,0 6.288,-1.152 8.832,-4.08001 v 3.456 h 5.856 z m -13.872,5.232 c 4.56,0 7.824,3.408 7.824,8.256 0,1.92 -0.768,4.128 -1.92,5.47201 -1.296,1.584 -3.36,2.4 -5.808,2.4 -4.656,0 -7.872002,-3.168 -7.872002,-7.82401 0,-4.848 3.216002,-8.304 7.776002,-8.304 z"
         style="font-weight:600;font-size:48px;font-family:'URW Gothic';-inkscape-font-specification:'URW Gothic, Semi-Bold';fill:#ffffff;stroke-width:0.682667;stroke-opacity:0.623529"
         id="path787" />
      <path
         d="m 160.97523,314.20625 c -7.1172,0 -12.95242,5.79101 -12.95242,12.81979 0,7.073 5.83522,12.8198 12.99662,12.8198 7.11721,0 13.04084,-5.7468 13.04084,-12.64297 0,-7.29403 -5.7026,-12.99664 -13.08504,-12.99662 z"
         style="font-weight:600;font-size:48px;font-family:'URW Gothic';-inkscape-font-specification:'URW Gothic, Semi-Bold';fill:#ffffff;stroke-width:0.628711;stroke-opacity:0.623529"
         id="path789"
         sodipodi:nodetypes="sssss" />
      <path
         d="m 178.96727,340.32204 h 5.95868 v -13.104 c 0,-2.64 0.22401,-4.416 0.62723,-5.52 0.71683,-1.776 2.1953,-2.736 4.2562,-2.736 1.56807,0 2.95693,0.624 3.76337,1.68 0.71683,1.008 1.03045,2.592 1.03045,5.088 v 14.592 h 5.95868 v -13.104 c 0,-2.976 0.22401,-4.464 0.85124,-5.712 0.76163,-1.632 2.2849,-2.544 4.16659,-2.544 1.47847,0 2.73293,0.576 3.53937,1.632 0.80643,1.008 1.12005,2.496 1.12005,5.136 v 14.592 h 5.95868 v -15.36 c 0,-3.216 -0.53763,-5.80799 -1.61288,-7.632 -1.56807,-2.68799 -4.65942,-4.22399 -8.46759,-4.22399 -3.49457,0 -5.91388,1.24799 -7.92997,4.12799 -1.70248,-2.928 -3.85298,-4.12799 -7.30274,-4.12799 -2.91214,0 -4.70422,0.864 -6.45151,3.12 v -2.49601 h -5.46585 z"
         style="font-weight:600;font-size:48px;font-family:'URW Gothic';-inkscape-font-specification:'URW Gothic, Semi-Bold';fill:#ffffff;stroke-width:0.659534;stroke-opacity:0.623529"
         id="path791" />
      <path
         d="m 138.9677,333.26604 c -0.864,-1.008 -1.2,-2.496 -1.2,-5.13599 v -8.59201 h 5.84 v -5.808 h -5.84 v -8.87999 h -6.384 v 8.87999 h -5.96147 v 5.808 h 5.96147 v 9.36001 c 0,3.216 0.576,5.80799 1.728,7.632 1.68,2.68799 4.992,4.22399 9.072,4.22399 h 1.424 v -5.8396 l -0.848,-0.0164 c -1.584,-10e-6 -2.928,-0.57601 -3.792,-1.63202 z"
         style="font-weight:600;font-size:48px;font-family:'URW Gothic';-inkscape-font-specification:'URW Gothic, Semi-Bold';fill:#ffffff;stroke-width:0.682667;stroke-opacity:0.623529"
         id="path793"
         sodipodi:nodetypes="csccccccccccsccccccc" />
    </g>
  </g>
</svg>
